<svg width="16" height="12" viewBox="0 0 16 12" fill="none" xmlns="http://www.w3.org/2000/svg">
<path d="M-0.499023 2C-0.499023 1.46957 -0.28831 0.960859 0.086763 0.585786C0.461836 0.210714 0.970544 0 1.50098 0H13.501C14.0314 0 14.5401 0.210714 14.9152 0.585786C15.2903 0.960859 15.501 1.46957 15.501 2V10C15.501 10.5304 15.2903 11.0391 14.9152 11.4142C14.5401 11.7893 14.0314 12 13.501 12H1.50098C0.970544 12 0.461836 11.7893 0.086763 11.4142C-0.28831 11.0391 -0.499023 10.5304 -0.499023 10V2ZM1.50098 1C1.23576 1 0.981406 1.10536 0.79387 1.29289C0.606333 1.48043 0.500977 1.73478 0.500977 2V2.217L7.50098 6.417L14.501 2.217V2C14.501 1.73478 14.3956 1.48043 14.2081 1.29289C14.0205 1.10536 13.7662 1 13.501 1H1.50098ZM14.501 3.383L9.74298 6.238L14.501 9.114V3.384V3.383ZM14.467 10.261L8.77198 6.82L7.50098 7.583L6.22898 6.82L0.534977 10.26C0.592175 10.4724 0.717825 10.6601 0.892464 10.7938C1.0671 10.9276 1.28098 11.0001 1.50098 11H13.501C13.7208 11.0001 13.9346 10.9278 14.1092 10.7942C14.2839 10.6607 14.4096 10.4732 14.467 10.261ZM0.500977 9.114L5.25898 6.238L0.500977 3.383V9.113V9.114Z" fill="white"/>
</svg>
