<svg width="24" height="45" viewBox="0 0 24 45" fill="none" xmlns="http://www.w3.org/2000/svg">
<g id="ChevronRight" clip-path="url(#clip0_3285_3751)">
<path id="Vector" fill-rule="evenodd" clip-rule="evenodd" d="M0.566203 0.698218C0.724541 0.540391 0.912639 0.415172 1.11972 0.329734C1.32681 0.244296 1.54881 0.200317 1.77302 0.200317C1.99723 0.200317 2.21923 0.244296 2.42632 0.329734C2.6334 0.415172 2.8215 0.540391 2.97984 0.698218L23.4344 21.0354C23.5931 21.1928 23.7191 21.3798 23.805 21.5857C23.8909 21.7916 23.9352 22.0124 23.9352 22.2353C23.9352 22.4582 23.8909 22.6789 23.805 22.8848C23.7191 23.0907 23.5931 23.2777 23.4344 23.4352L2.97984 43.7723C2.65977 44.0906 2.22567 44.2693 1.77302 44.2693C1.32038 44.2693 0.886271 44.0906 0.566203 43.7723C0.246135 43.4541 0.0663221 43.0225 0.0663221 42.5724C0.0663221 42.1224 0.246135 41.6908 0.566203 41.3725L19.8173 22.2353L0.566203 3.098C0.407465 2.94057 0.281523 2.75356 0.195592 2.54766C0.109661 2.34176 0.0654297 2.12103 0.0654297 1.89811C0.0654297 1.67519 0.109661 1.45446 0.195592 1.24856C0.281523 1.04267 0.407465 0.855647 0.566203 0.698218Z" fill="white"/>
</g>
<defs>
<clipPath id="clip0_3285_3751">
<rect width="24" height="44.4706" fill="white"/>
</clipPath>
</defs>
</svg>
