<svg xmlns="http://www.w3.org/2000/svg" width="24" height="24" viewBox="0 0 24 24" fill="none">
<path d="M21.1223 9.41243C21.0646 9.24262 20.9585 9.09341 20.817 8.98322C20.6755 8.87303 20.5049 8.80669 20.3261 8.79238L15.097 8.37688L12.8341 3.36786C12.7621 3.20653 12.6449 3.0695 12.4966 2.97332C12.3484 2.87714 12.1755 2.8259 11.9988 2.82581C11.8221 2.82571 11.6492 2.87675 11.5009 2.97277C11.3525 3.0688 11.2352 3.20569 11.1629 3.36694L8.90012 8.37688L3.67097 8.79238C3.49528 8.8063 3.32732 8.87054 3.18718 8.97742C3.04704 9.08429 2.94066 9.22928 2.88077 9.39503C2.82087 9.56079 2.81 9.74028 2.84944 9.91205C2.88889 10.0838 2.97699 10.2406 3.1032 10.3636L6.96751 14.1307L5.60083 20.0487C5.55933 20.2278 5.57263 20.4153 5.639 20.5868C5.70538 20.7583 5.82176 20.9058 5.97304 21.0103C6.12433 21.1149 6.30354 21.1715 6.48741 21.1729C6.67129 21.1743 6.85134 21.1204 7.0042 21.0182L11.9985 17.6886L16.9929 21.0182C17.1491 21.1219 17.3334 21.1753 17.5209 21.1712C17.7084 21.1671 17.8901 21.1057 18.0416 20.9952C18.1932 20.8847 18.3073 20.7305 18.3685 20.5532C18.4298 20.376 18.4353 20.1842 18.3843 20.0037L16.7067 14.1334L20.8673 10.3893C21.1397 10.1435 21.2397 9.76007 21.1223 9.41243Z" fill="#F3CD03"/>
</svg>