<svg xmlns="http://www.w3.org/2000/svg" width="23" height="24" viewBox="0 0 23 24" fill="none">
<path d="M5.99772 14.1308L4.63104 20.0488C4.58872 20.228 4.60143 20.4158 4.6675 20.5877C4.73357 20.7596 4.84993 20.9075 5.00139 21.0122C5.15286 21.1169 5.33237 21.1735 5.5165 21.1746C5.70062 21.1757 5.8808 21.1212 6.03349 21.0183L11.0278 17.6888L16.0222 21.0183C16.1784 21.1221 16.3627 21.1755 16.5502 21.1714C16.7377 21.1673 16.9194 21.1058 17.0709 20.9953C17.2225 20.8849 17.3365 20.7306 17.3978 20.5534C17.4591 20.3761 17.4646 20.1844 17.4136 20.0039L15.736 14.1336L19.8966 10.3894C20.0298 10.2695 20.125 10.113 20.1703 9.93955C20.2156 9.76605 20.209 9.58308 20.1515 9.41327C20.0939 9.24345 19.9878 9.09424 19.8463 8.98408C19.7048 8.87392 19.5342 8.80764 19.3554 8.79345L14.1263 8.37703L11.8634 3.36801C11.7913 3.20672 11.674 3.06976 11.5257 2.97366C11.3774 2.87755 11.2045 2.82642 11.0278 2.82642C10.8511 2.82642 10.6782 2.87755 10.53 2.97366C10.3817 3.06976 10.2644 3.20672 10.1922 3.36801L7.92942 8.37703L2.70027 8.79254C2.52457 8.80645 2.35661 8.87069 2.21647 8.97757C2.07634 9.08445 1.96996 9.22943 1.91006 9.39518C1.85017 9.56094 1.83929 9.74044 1.87874 9.91221C1.91819 10.084 2.00629 10.2407 2.1325 10.3638L5.99772 14.1308ZM8.61459 10.1629C8.77831 10.15 8.93555 10.0933 9.06982 9.99871C9.20409 9.90414 9.31044 9.77519 9.37773 9.62538L11.0278 5.97387L12.6779 9.62538C12.7452 9.77519 12.8516 9.90414 12.9859 9.99871C13.1201 10.0933 13.2774 10.15 13.4411 10.1629L17.0843 10.4518L14.0841 13.1521C13.8236 13.387 13.7199 13.7484 13.8153 14.0859L14.9646 18.108L11.5378 15.8231C11.3874 15.7222 11.2104 15.6683 11.0292 15.6683C10.8481 15.6683 10.671 15.7222 10.5206 15.8231L6.93972 18.2107L7.90282 14.0409C7.93813 13.8876 7.93339 13.7277 7.88906 13.5767C7.84472 13.4257 7.76228 13.2887 7.64966 13.1787L4.8631 10.4619L8.61459 10.1629Z" fill="#F3CD03"/>
</svg>