<svg width="23" height="23" viewBox="0 0 23 23" fill="none" xmlns="http://www.w3.org/2000/svg">
<g id="icn bxs-star">
<path id="Vector" d="M20.1311 8.41929C20.0734 8.24948 19.9673 8.10027 19.8258 7.99008C19.6843 7.87989 19.5137 7.81355 19.3349 7.79924L14.1057 7.38374L11.8429 2.37472C11.7709 2.21339 11.6536 2.07636 11.5054 1.98018C11.3572 1.88399 11.1843 1.83276 11.0076 1.83266C10.8309 1.83257 10.658 1.88361 10.5097 1.97963C10.3613 2.07565 10.244 2.21255 10.1717 2.3738L7.90891 7.38374L2.67976 7.79924C2.50407 7.81316 2.3361 7.8774 2.19597 7.98428C2.05583 8.09115 1.94945 8.23614 1.88955 8.40189C1.82966 8.56764 1.81878 8.74714 1.85823 8.91891C1.89768 9.09068 1.98578 9.24745 2.11199 9.37046L5.9763 13.1375L4.60962 19.0555C4.56812 19.2347 4.58142 19.4221 4.64779 19.5936C4.71417 19.7651 4.83055 19.9127 4.98183 20.0172C5.13312 20.1217 5.31233 20.1784 5.4962 20.1798C5.68008 20.1812 5.86013 20.1273 6.01299 20.0251L11.0073 16.6955L16.0017 20.0251C16.1579 20.1288 16.3422 20.1822 16.5297 20.1781C16.7171 20.174 16.8989 20.1125 17.0504 20.0021C17.202 19.8916 17.316 19.7373 17.3773 19.5601C17.4386 19.3828 17.4441 19.1911 17.3931 19.0106L15.7155 13.1403L19.8761 9.39615C20.1485 9.15033 20.2485 8.76692 20.1311 8.41929Z" fill="#00A1C1"/>
</g>
</svg>
